<?xml version="1.0" encoding="UTF-8" standalone="no"?><!DOCTYPE svg PUBLIC "-//W3C//DTD SVG 1.1//EN" "http://www.w3.org/Graphics/SVG/1.1/DTD/svg11.dtd"><svg width="100%" height="100%" viewBox="0 0 1390 275" version="1.1" xmlns="http://www.w3.org/2000/svg" xmlns:xlink="http://www.w3.org/1999/xlink" xml:space="preserve" xmlns:serif="http://www.serif.com/" style="fill-rule:evenodd;clip-rule:evenodd;stroke-linejoin:round;stroke-miterlimit:2;"><g><path d="M80,137.083l79.167,137.084l-80,-0l-79.167,-137.084l79.167,-137.083l80,-0l-40,69.167l-39.167,67.916Z" style="fill:#2563eb;fill-rule:nonzero;"/></g><g><path d="M401.667,137.083l-78.75,136.25l-0.417,0.834l-80,-0l40.417,-70l38.75,-67.084l-79.167,-137.083l80,0l79.167,137.083Z" style="fill:#2563eb;fill-rule:nonzero;"/></g><g><path d="M322.5,274.167l-85,-0l-118.333,-205l-40,-69.167l85,-0l117.916,204.167l40,69.166l0.417,0.834Z" style="fill:#2563eb;fill-rule:nonzero;"/></g><g><path d="M79.167,0l34.583,78.75l5.417,-9.583l-40,-69.167Z" style="fill-opacity:0.44;fill-rule:nonzero;"/></g><g><path d="M322.5,274.167l-34.167,-78.75l-5.833,9.583l40,69.167Z" style="fill-opacity:0.44;fill-rule:nonzero;"/></g><g><path d="M565.003,238.179l-0,-194.533l38.737,0l-0,194.533l-38.737,-0Zm-63.336,-164.561l-0,-34.213l165.409,0l-0,34.213l-165.409,-0Z" style="fill-rule:nonzero;"/><path d="M781.59,238.179l0,-78.322c0,-8.106 -2.545,-14.703 -7.634,-19.793c-5.09,-5.089 -11.687,-7.634 -19.793,-7.634c-5.278,0 -9.99,1.131 -14.137,3.393c-4.147,2.262 -7.399,5.467 -9.755,9.614c-2.356,4.147 -3.535,8.953 -3.535,14.42l-14.42,-7.352c0,-10.744 2.262,-20.122 6.786,-28.133c4.524,-8.012 10.792,-14.279 18.803,-18.803c8.011,-4.524 17.201,-6.786 27.568,-6.786c10.368,-0 19.557,2.262 27.568,6.786c8.012,4.524 14.279,10.744 18.803,18.661c4.524,7.917 6.786,17.06 6.786,27.427l0,86.522l-37.04,-0Zm-91.894,-0l0,-204.429l37.04,-0l0,204.429l-37.04,-0Z" style="fill-rule:nonzero;"/><path d="M912.786,241.006c-13.76,0 -26.154,-3.157 -37.181,-9.472c-11.028,-6.315 -19.793,-14.891 -26.296,-25.73c-6.503,-10.839 -9.755,-22.95 -9.755,-36.334c0,-13.383 3.205,-25.4 9.614,-36.05c6.409,-10.651 15.174,-19.133 26.295,-25.448c11.122,-6.315 23.469,-9.472 37.041,-9.472c13.949,-0 26.437,3.157 37.464,9.472c11.028,6.315 19.746,14.797 26.155,25.448c6.409,10.65 9.613,22.667 9.613,36.05c0,13.384 -3.204,25.495 -9.613,36.334c-6.409,10.839 -15.127,19.415 -26.155,25.73c-11.027,6.315 -23.421,9.472 -37.182,9.472Zm-0.282,-34.495c6.974,-0 13.148,-1.555 18.52,-4.666c5.372,-3.11 9.519,-7.445 12.441,-13.006c2.922,-5.561 4.383,-11.923 4.383,-19.086c-0,-7.163 -1.508,-13.478 -4.524,-18.944c-3.016,-5.467 -7.163,-9.755 -12.441,-12.865c-5.278,-3.111 -11.405,-4.666 -18.379,-4.666c-6.786,0 -12.818,1.555 -18.096,4.666c-5.278,3.11 -9.425,7.398 -12.441,12.865c-3.016,5.466 -4.524,11.781 -4.524,18.944c-0,7.163 1.508,13.525 4.524,19.086c3.016,5.561 7.163,9.896 12.441,13.006c5.278,3.111 11.31,4.666 18.096,4.666Z" style="fill-rule:nonzero;"/><path d="M1009.49,238.179l0,-136.569l37.041,0l-0,136.569l-37.041,-0Zm37.041,-75.495l-14.421,-9.613c1.697,-16.777 6.598,-30.019 14.703,-39.727c8.106,-9.707 19.793,-14.561 35.062,-14.561c6.597,-0 12.535,1.084 17.813,3.251c5.278,2.168 10.085,5.702 14.42,10.604l-23.185,26.578c-2.074,-2.262 -4.572,-3.958 -7.493,-5.089c-2.922,-1.131 -6.268,-1.697 -10.038,-1.697c-7.917,0 -14.373,2.498 -19.368,7.493c-4.996,4.995 -7.493,12.582 -7.493,22.761Z" style="fill-rule:nonzero;"/><rect x="1136.16" y="39.405" width="38.454" height="198.774" style="fill-rule:nonzero;"/><path d="M1344.26,238.179l-57.115,-88.501l-5.655,-0l-77.474,-110.273l45.523,0l56.833,83.412l5.655,-0l77.191,115.362l-44.958,-0Zm-143.637,-0l74.363,-106.314l28.276,18.944l-59.095,87.37l-43.544,-0Zm113.383,-94.439l-28.275,-18.944l56.55,-85.391l43.544,0l-71.819,104.335Z" style="fill-rule:nonzero;"/></g></svg>